<svg version="1.2" xmlns="http://www.w3.org/2000/svg" viewBox="0 0 130 36" width="130" height="36">
	<title>download-svg</title>
	<style>
		.s0 { fill: #ffffff } 
	</style>
	<path id="Layer" fill-rule="evenodd" class="s0" d="m32.4 26.5c-2.9 2.1-5.6 3.3-8.3 4.1q-0.2-0.3-0.5-0.7-0.2-0.3-0.4-0.7-0.2-0.3-0.4-0.7-0.2-0.3-0.4-0.7 1.4-0.6 2.7-1.3-0.3-0.3-0.6-0.6c-5.3 2.5-11.1 2.5-16.5 0q-0.3 0.3-0.7 0.6 0.4 0.2 0.7 0.3 0.4 0.2 0.7 0.4 0.4 0.2 0.7 0.3 0.4 0.1 0.7 0.3-0.2 0.4-0.4 0.7-0.2 0.4-0.4 0.7-0.2 0.4-0.5 0.7-0.2 0.4-0.4 0.7c-2.7-0.8-5.4-2-8.3-4.1-0.5-6 0.6-12.2 4.9-18.4q0.8-0.4 1.6-0.7 0.8-0.3 1.6-0.6 0.9-0.2 1.7-0.4 0.9-0.3 1.8-0.4 0.1 0.2 0.2 0.4 0.1 0.2 0.2 0.5 0.1 0.2 0.2 0.4 0.1 0.2 0.2 0.4 1-0.1 1.9-0.2 0.9 0 1.8 0 1 0 1.9 0 0.9 0.1 1.9 0.2 0.1-0.2 0.2-0.4 0.1-0.2 0.2-0.4 0.1-0.3 0.2-0.5 0.1-0.2 0.2-0.4 0.9 0.1 1.7 0.3 0.9 0.3 1.7 0.5 0.9 0.3 1.7 0.6 0.8 0.3 1.6 0.7c3.7 5.3 5.5 11.4 4.9 18.4zm-18.6-7c0-1.8-1.3-3.2-3-3.2-1.6 0-2.9 1.4-2.9 3.2 0 1.8 1.3 3.3 2.9 3.3 1.7 0 3-1.5 3-3.3zm10.8 0c0-1.8-1.3-3.2-3-3.2-1.6 0-2.9 1.4-2.9 3.2 0 1.8 1.3 3.3 2.9 3.3 1.7 0 3-1.5 3-3.3zm19.1-7.2h6.9q2.6 0 4.3 0.8 1.8 0.8 2.6 2.2 0.9 1.4 0.9 3.2 0 1.7-0.9 3.2-0.9 1.4-2.8 2.3-1.8 0.8-4.6 0.8h-6.4zm6.4 9.3q1.7 0 2.6-0.8 0.9-0.9 0.9-2.3 0-1.4-0.8-2.2-0.8-0.8-2.5-0.8h-2.2v6.1c0 0 2 0 2 0zm18.7 3.2q-0.3-0.1-0.6-0.2-0.4-0.1-0.7-0.2-0.3-0.2-0.7-0.3-0.3-0.2-0.6-0.4v-3q0.9 0.7 2.4 1.2 1.5 0.4 2.8 0.4 0.7 0 1-0.2 0.3-0.1 0.3-0.4 0 0 0-0.1 0-0.1 0-0.1 0-0.1-0.1-0.1 0-0.1 0-0.1-0.2-0.2-0.7-0.3l-2.2-0.5q-1.8-0.4-2.6-1.2-0.8-0.8-0.8-2 0-1 0.7-1.8 0.7-0.8 1.9-1.2 1.3-0.4 3-0.4 1.5 0 2.7 0.3 1.3 0.3 2.1 0.8v2.8q-0.2-0.1-0.5-0.2-0.2-0.1-0.5-0.2-0.2-0.1-0.4-0.2-0.3-0.1-0.6-0.1-0.2-0.1-0.5-0.2-0.3 0-0.6-0.1-0.3 0-0.5 0-0.3 0-0.6 0-1.7 0-1.7 0.5 0 0.3 0.3 0.4 0.2 0.2 0.9 0.3l1.8 0.3q1.8 0.3 2.6 1.1 0.9 0.8 0.9 2.2 0 1.7-1.4 2.6-1.5 1-4.1 1-0.4 0-0.7 0-0.4-0.1-0.8-0.1-0.4-0.1-0.7-0.1-0.4-0.1-0.8-0.2zm12.7-0.4q-1.5-0.7-2.3-2-0.8-1.3-0.8-2.9 0-1.6 0.8-2.9 0.8-1.3 2.4-2 1.5-0.7 3.7-0.7 2.7 0 4.5 1.1v3.3q-0.2-0.1-0.4-0.2-0.2-0.1-0.4-0.2-0.1-0.1-0.3-0.2-0.2 0-0.4-0.1-0.2-0.1-0.4-0.1-0.3-0.1-0.5-0.1-0.2 0-0.4-0.1-0.3 0-0.5 0-1.7 0-2.6 0.6-0.9 0.6-0.9 1.6 0 1 0.9 1.6 0.9 0.6 2.6 0.6 0.3 0 0.5 0 0.2 0 0.4 0 0.2-0.1 0.5-0.1 0.2-0.1 0.4-0.1 0.2-0.1 0.4-0.1 0.2-0.1 0.4-0.2 0.1-0.1 0.3-0.2 0.2-0.1 0.4-0.2v3.2q-2 1.2-4.6 1.2-2.2 0-3.7-0.8zm12.7 0q-1.5-0.7-2.3-2-0.3-0.4-0.4-0.7-0.2-0.4-0.3-0.7-0.1-0.4-0.1-0.8-0.1-0.4-0.1-0.7 0-1.7 0.9-2.9 0.8-1.3 2.3-2 1.5-0.7 3.7-0.7 2.1 0 3.6 0.7 1.6 0.7 2.4 2 0.8 1.2 0.8 2.9 0 1.6-0.8 2.9-0.8 1.3-2.4 2-1.5 0.8-3.6 0.8-2.1 0-3.7-0.8zm5.4-3.1q0.7-0.7 0.7-1.8 0-1-0.7-1.7-0.6-0.6-1.7-0.6-1.2 0-1.8 0.6-0.7 0.7-0.7 1.7 0 1.1 0.7 1.8 0.6 0.6 1.8 0.6 1.1 0 1.7-0.6zm15.8-6.7v3.8q-0.6-0.4-1.7-0.4-1.5 0-2.2 0.8-0.8 0.9-0.8 2.7v3.3h-4.4v-10.4h4.3v3.3q0.4-1.8 1.2-2.7 0.8-0.9 2-0.9 1 0 1.6 0.5zm14.6-2.7v12.9h-4.4v-2.3q-0.5 1.3-1.7 2-1.1 0.7-2.8 0.7-1.5 0-2.6-0.7-1.1-0.8-1.7-2-0.6-1.3-0.6-2.9 0-1.6 0.7-2.9 0.1-0.3 0.3-0.6 0.2-0.3 0.4-0.6 0.3-0.2 0.5-0.5 0.3-0.2 0.6-0.4 1.2-0.7 2.7-0.7 3.1 0 4.2 2.7v-4.7c0 0 4.4 0 4.4 0zm-5 9.3q0.6-0.7 0.6-1.7 0-1-0.6-1.6-0.7-0.7-1.8-0.7-1.1 0-1.8 0.7-0.6 0.6-0.6 1.6 0 1.1 0.6 1.7 0.7 0.6 1.8 0.6 1.1 0 1.8-0.6zm-65.1-7.7c0-1.1 1-2 2.2-2 1.2 0 2.2 0.9 2.2 2 0 1.1-1 2-2.2 2-1.2 0-2.2-0.9-2.2-2zm0 3.3c1.3 0.6 3 0.6 4.4 0v8.1h-4.4z"/>
</svg>