<svg xmlns="http://www.w3.org/2000/svg" width="24" height="24" id="home"><path d="M5.072 0A5.061 5.061 0 0 0 0 5.072v13.856A5.061 5.061 0 0 0 5.072 24h13.856A5.061 5.061 0 0 0 24 18.928V5.072A5.061 5.061 0 0 0 18.928 0H5.072zm6.895 4c.133 0 .266.053.36.148l4.634 4.6 1 1.006c.57.595 1.147 1.198 1.709 1.79.258.259.31.26.312.518.004.263-.255.495-.517.485a.507.507 0 0 1-.356-.147l-1.136-1.144V19.5a.52.52 0 0 1-.5.5h-4.5v-5h-2v5h-4.5a.52.52 0 0 1-.5-.5v-8.246L4.834 12.4c-.37.373-1.081-.334-.711-.707l7.492-7.545A.503.503 0 0 1 11.967 4zm5.498 2.563a.52.52 0 0 1 .508.507v1.762l-1-1.006V7.07a.517.517 0 0 1 .492-.508z"></path></svg>