<svg xmlns="http://www.w3.org/2000/svg" viewBox="0 0 64 64" id="student-data"><g data-name="Student Data"><path fill="#231f20" d="M49,60H7V4H40v6a3,3,0,0,0,3,3h6V23h2V12c0-.021-.011-.04-.012-.062a1,1,0,0,0-.052-.259c-.011-.032-.019-.062-.033-.093a1,1,0,0,0-.2-.293l-9-9a.97.97,0,0,0-.294-.2c-.03-.014-.06-.022-.091-.033a1.008,1.008,0,0,0-.261-.052C41.04,2.011,41.021,2,41,2H6A1,1,0,0,0,5,3V61a1,1,0,0,0,1,1H50a1,1,0,0,0,1-1V47H49ZM47.586,11H43a1,1,0,0,1-1-1V5.414Z"></path><path fill="#231f20" d="M13,20h8a1,1,0,0,0,1-1,4.983,4.983,0,0,0-2.52-4.315A2.981,2.981,0,0,0,20,13V12a3,3,0,0,0-6,0v1a2.981,2.981,0,0,0,.52,1.685A4.983,4.983,0,0,0,12,19,1,1,0,0,0,13,20Zm3-7V12a1,1,0,0,1,2,0v1a1,1,0,0,1-2,0Zm1,3a3.006,3.006,0,0,1,2.829,2H14.171A3.006,3.006,0,0,1,17,16Z"></path><path fill="#231f20" d="M25,22V7a1,1,0,0,0-1-1H10A1,1,0,0,0,9,7V22a1,1,0,0,0,1,1H24A1,1,0,0,0,25,22Zm-2-1H11V8H23Z"></path><rect width="4" height="2" x="29" y="15" fill="#231f20"></rect><rect width="10" height="2" x="35" y="15" fill="#231f20"></rect><rect width="16" height="2" x="29" y="20" fill="#231f20"></rect><rect width="33" height="2" x="12" y="28" fill="#231f20"></rect><rect width="33" height="2" x="12" y="34" fill="#231f20"></rect><rect width="4" height="2" x="12" y="40" fill="#231f20"></rect><rect width="25" height="2" x="18" y="40" fill="#231f20"></rect><rect width="28" height="2" x="12" y="47" fill="#231f20"></rect><path fill="#231f20" d="M60.962,21.975l-1.852-.831.361-.871a3,3,0,1,0-5.543-2.3L40.144,51.232a1.009,1.009,0,0,0-.077.371L40,56.987a1,1,0,0,0,.617.937A.987.987,0,0,0,41,58a1,1,0,0,0,.716-.3l3.762-3.853a1.027,1.027,0,0,0,.208-.316L58.344,22.992l.913.409L56.565,29.9l1.848.765,3.064-7.39A1,1,0,0,0,60.962,21.975Zm-5.187-3.232a1,1,0,1,1,1.848.765l-1.914,4.619-1.848-.766ZM42.049,53.1l.966.4-.984,1.007Zm2.172-1.264-1.847-.766L53.1,25.208l1.847.766Z"></path></g></svg>