<svg xmlns="http://www.w3.org/2000/svg" viewBox="0 0 48 48" id="resume"><g data-name="Layer 2"><path d="M4,20C4,12.46,4,8.69,6.34,6.34S12.46,4,20,4h8c7.54,0,11.31,0,13.66,2.34S44,12.46,44,20v8c0,7.54,0,11.31-2.34,13.66S35.54,44,28,44H20c-7.54,0-11.31,0-13.66-2.34S4,35.54,4,28Z"></path><path fill="#fff" d="M23.25,19.5a.75.75,0,1,1,.75.75A.76.76,0,0,1,23.25,19.5ZM24,21.75a2.25,2.25,0,0,0-2.12,1.5h4.24A2.25,2.25,0,0,0,24,21.75ZM31.75,16V32A1.76,1.76,0,0,1,30,33.75H18A1.76,1.76,0,0,1,16.25,32V16A1.76,1.76,0,0,1,18,14.25H30A1.76,1.76,0,0,1,31.75,16Zm-11.5,8a.76.76,0,0,0,.75.75h6a.76.76,0,0,0,.75-.75,3.75,3.75,0,0,0-1.89-3.24,2.19,2.19,0,0,0,.39-1.26,2.25,2.25,0,0,0-4.5,0,2.19,2.19,0,0,0,.39,1.26A3.75,3.75,0,0,0,20.25,24Zm1.5,6a.76.76,0,0,0-.75-.75H20a.75.75,0,0,0,0,1.5h1A.76.76,0,0,0,21.75,30Zm0-3a.76.76,0,0,0-.75-.75H20a.75.75,0,0,0,0,1.5h1A.76.76,0,0,0,21.75,27Zm7,3a.76.76,0,0,0-.75-.75H24a.75.75,0,0,0,0,1.5h4A.76.76,0,0,0,28.75,30Zm0-3a.76.76,0,0,0-.75-.75H24a.75.75,0,0,0,0,1.5h4A.76.76,0,0,0,28.75,27Z"></path></g></svg>