<svg xmlns="http://www.w3.org/2000/svg" data-name="Layer 1" viewBox="0 0 64 64" id="social-media"><path d="M38,6H8A1,1,0,0,0,7,7V23a1,1,0,0,0,1,1H27.29a8.113,8.113,0,0,1,.28-.78A7.034,7.034,0,0,1,34,19h5V7A1,1,0,0,0,38,6ZM28.09,16.71l-7.06,4.24a2.033,2.033,0,0,1-1.03.29,2.019,2.019,0,0,1-2-2.01V10.77a2,2,0,0,1,3.03-1.72l7.06,4.24a1.992,1.992,0,0,1,0,3.42Z"></path><polygon points="27.06 15 20 19.23 20 10.77 27.06 15"></polygon><path d="M41 0H5A5 5 0 0 0 0 5V29a5 5 0 0 0 5 5H27V30.01A1 1 0 1 1 26 29a1 1 0 0 1 1 1.01V26H8a3.009 3.009 0 0 1-3-3V7A3.009 3.009 0 0 1 8 4H38a3.009 3.009 0 0 1 3 3V19h5V5A5 5 0 0 0 41 0zM7 29H19a1 1 0 0 1 0 2H7a1 1 0 0 1 0-2zM40 31.5H38a1 1 0 0 0-1 1v1a1 1 0 0 0 1 1h2zM39.382 36.5l.39 3.126a1.01 1.01 0 0 0 1 .874H41V36.557l-.17-.057zM50.68 28.33L42 31.22v3.56l8.68 2.89a.963.963 0 0 0 .9-.13.983.983 0 0 0 .42-.81V29.27a.983.983 0 0 0-.42-.81A.963.963 0 0 0 50.68 28.33z"></path><path d="M59,21H34a5.029,5.029,0,0,0-4.59,3A5.106,5.106,0,0,0,29,26V37h3a7.02,7.02,0,0,1,5.84,3.14,2,2,0,0,1-.05-.26l-.43-3.45A3.01,3.01,0,0,1,35,33.5v-1a3.009,3.009,0,0,1,3-3h2.83l9.22-3.07A3,3,0,0,1,54,29.27v7.46a2.951,2.951,0,0,1-1.25,2.43,2.991,2.991,0,0,1-1.74.57,2.93,2.93,0,0,1-.96-.16L43,37.22V41.5a1,1,0,0,1-1,1H40.77a3.037,3.037,0,0,1-2.24-.99A6.645,6.645,0,0,1,39,44v3H59a5,5,0,0,0,5-5V26A5,5,0,0,0,59,21ZM58,35a1,1,0,0,1-2,0V31a1,1,0,0,1,2,0Z"></path><circle cx="25" cy="46" r="1"></circle><path d="M32,39H5a5,5,0,0,0-5,5V59a4.979,4.979,0,0,0,.83,2.75L13.26,49.29a1.014,1.014,0,0,1,1.42,0L23.5,58.1l6.79-6.81a1.014,1.014,0,0,1,1.42,0L37,56.59V44A5,5,0,0,0,32,39ZM25,49a3,3,0,1,1,3-3A3.009,3.009,0,0,1,25,49Z"></path><path d="M24.914 59.51l4.5 4.49H32a4.987 4.987 0 0 0 4.962-4.624L31 53.415zM22.783 60.228c-.016-.017-.022-.039-.037-.056l-8.775-8.757L2.242 63.169A5 5 0 0 0 5 64H26.582l-3.743-3.736C22.822 60.249 22.8 60.244 22.783 60.228z"></path></svg>